<?xml version="1.0" encoding="utf-8"?>
<!-- Generator: Adobe Illustrator 16.0.0, SVG Export Plug-In . SVG Version: 6.00 Build 0)  -->
<!DOCTYPE svg PUBLIC "-//W3C//DTD SVG 1.1//EN" "http://www.w3.org/Graphics/SVG/1.1/DTD/svg11.dtd">
<svg version="1.1" id="Layer_1" xmlns="http://www.w3.org/2000/svg" xmlns:xlink="http://www.w3.org/1999/xlink" x="0px" y="0px"
	 width="424px" height="109.001px" viewBox="0 0 424 109.001" enable-background="new 0 0 424 109.001" xml:space="preserve">
<rect x="3" y="19.524" fill="#FFFFFF" width="5.846" height="69.515"/>
<rect x="67.922" y="19.526" fill="#FFFFFF" width="10.667" height="69.513"/>
<rect x="246.962" y="19.393" fill="#FFFFFF" width="31.168" height="7.993"/>
<rect x="246.963" y="49.851" fill="#FFFFFF" width="31.168" height="7.995"/>
<rect x="246.962" y="81.109" fill="#FFFFFF" width="31.168" height="7.998"/>
<path fill="#FFFFFF" d="M332.618,90.397c-0.512,0-0.828-0.017-0.9-0.021l-2.02-0.134l0.49-8.876l2.043,0.114
	c0.012,0,0.137,0.004,0.338,0.004c1.18,0,7.246-0.172,10.824-3.572c1.961-1.865,2.957-4.581,2.957-8.073
	c0-6.251-6.695-9.674-14.449-13.637c-8.455-4.319-18.031-9.212-18.031-19.6c0-5.779,1.791-10.374,5.326-13.657
	c4.646-4.315,10.793-4.78,13.219-4.78c0.551,0,0.893,0.024,0.959,0.028l2.039,0.147l-0.639,8.884l-2.037-0.144
	c-0.012,0-0.129-0.004-0.314-0.004c-1.078,0-4.785,0.174-7.18,2.414c-1.633,1.53-2.463,3.92-2.463,7.111
	c0,4.934,6.396,8.201,13.168,11.659c8.607,4.399,19.312,9.871,19.312,21.577c0,6.046-1.938,10.944-5.758,14.559
	C343.782,89.812,335.788,90.397,332.618,90.397L332.618,90.397z"/>
<polygon fill="#FFFFFF" points="112.561,101.919 149.027,3 159.887,7.01 123.422,105.923 "/>
<polygon fill="#FFFFFF" points="378.153,102.682 414.622,3.767 421.321,6.245 384.856,105.16 "/>
<path fill="#FFFFFF" d="M185.304,28.545h11.026c2.1,0,12.58,0.493,12.58,10.229c0,7.929-4.703,12.664-12.58,12.664h-6.624
	l-0.024-0.035c-0.391,1.064-2.621,7.114-3.891,10.559l19.557,28.224l10.97-0.124l-20.975-30.442h0.987
	c12.416,0,20.759-8.377,20.759-20.845c0-10.84-8.536-18.41-20.759-18.41h-8.011L185.304,28.545z"/>
</svg>
